# xmcd
#
# Track frame offsets:
# 150
# 24052
# 42552
# 65696
# 85366
# 107415
# 125247
# 147387
# 166121
# 185253
# 204675
# 224307
# 241599
# 258914
#
# Disc length: 3771 seconds
#
#
# Revision: 0
# Processed by: cddbd v1.5PL3 Copyright (c) Steve Scherf et al.
# Submitted via: CDLP Version 5
#
DISCID=c30eb90e
DTITLE=不明なアーティスト - 不明なアルバム (2003/01/13 8:08:28)
DYEAR=1900
DGENRE=Misc
TTITLE0=トラック 1
TTITLE1=トラック 2
TTITLE2=トラック 3
TTITLE3=トラック 4
TTITLE4=トラック 5
TTITLE5=トラック 6
TTITLE6=トラック 7
TTITLE7=トラック 8
TTITLE8=トラック 9
TTITLE9=トラック 10
TTITLE10=トラック 11
TTITLE11=トラック 12
TTITLE12=トラック 13
TTITLE13=トラック 14
EXTD=
EXTT0=
EXTT1=
EXTT2=
EXTT3=
EXTT4=
EXTT5=
EXTT6=
EXTT7=
EXTT8=
EXTT9=
EXTT10=
EXTT11=
EXTT12=
EXTT13=
PLAYORDER=
